<svg version="1.0" xmlns="http://www.w3.org/2000/svg"
 width="200.000000pt" height="200.000000pt" viewBox="0 0 200.000000 200.000000"
 preserveAspectRatio="xMidYMid meet">

<g transform="translate(0.000000,200.000000) scale(0.100000,-0.100000)"
fill="#000000" stroke="none">
<path d="M1590 1853 c-8 -3 -26 -15 -38 -27 -54 -48 -52 -25 -52 -733 l1 -658
62 -145 c38 -88 68 -145 77 -145 9 0 39 57 77 145 l62 145 1 660 c0 641 -1
661 -20 693 -35 57 -111 86 -170 65z m99 -47 c15 -8 32 -26 39 -41 9 -19 12
-191 12 -665 l0 -640 -100 0 -100 0 0 643 c1 688 0 675 51 703 31 17 64 17 98
0z m4 -1468 c-19 -46 -38 -91 -40 -100 -7 -23 -19 -23 -26 0 -2 9 -21 54 -40
100 l-36 82 89 0 89 0 -36 -82z"/>
<path d="M225 1768 c-3 -7 -4 -357 -3 -778 l3 -765 555 0 555 0 0 775 0 775
-553 3 c-437 2 -554 0 -557 -10z m1075 -768 l0 -740 -520 0 -520 0 0 740 0
740 520 0 520 0 0 -740z"/>
<path d="M482 1483 c3 -16 17 -18 138 -18 113 0 135 2 135 15 0 12 -23 15
-138 18 -128 2 -138 1 -135 -15z"/>
<path d="M882 1483 c3 -16 15 -18 98 -18 78 0 95 3 95 15 0 12 -19 16 -98 18
-90 2 -98 1 -95 -15z"/>
<path d="M482 1283 c3 -16 17 -18 138 -18 113 0 135 2 135 15 0 12 -23 15
-138 18 -128 2 -138 1 -135 -15z"/>
<path d="M882 1283 c3 -16 15 -18 98 -18 78 0 95 3 95 15 0 12 -19 16 -98 18
-90 2 -98 1 -95 -15z"/>
<path d="M482 1003 c3 -17 24 -18 298 -18 256 0 295 2 295 15 0 13 -41 15
-298 18 -281 2 -298 1 -295 -15z"/>
<path d="M482 723 c3 -16 17 -18 138 -18 113 0 135 2 135 15 0 12 -23 15 -138
18 -128 2 -138 1 -135 -15z"/>
<path d="M882 723 c3 -16 15 -18 98 -18 78 0 95 3 95 15 0 12 -19 16 -98 18
-90 2 -98 1 -95 -15z"/>
<path d="M482 523 c3 -16 17 -18 138 -18 113 0 135 2 135 15 0 12 -23 15 -138
18 -128 2 -138 1 -135 -15z"/>
<path d="M882 523 c3 -16 15 -18 98 -18 78 0 95 3 95 15 0 12 -19 16 -98 18
-90 2 -98 1 -95 -15z"/>
</g>
</svg>
